<svg width="25" height="24" viewBox="0 0 25 24" fill="none" xmlns="http://www.w3.org/2000/svg">
<path d="M10.6596 0.395508C9.2898 0.418829 8.0526 1.24448 7.49291 2.52117L14.1944 4.56694C14.489 2.79109 13.4334 1.06933 11.7347 0.546844C11.4304 0.453561 11.1112 0.402454 10.7921 0.395508H10.6596ZM7.23762 3.37659C6.93813 5.1574 7.99368 6.88412 9.69729 7.40512C11.4058 7.92611 13.2272 7.07267 13.944 5.42038L7.23762 3.37659ZM20.2724 5.57419C19.0303 5.57915 17.7096 6.1845 16.713 7.60855L10.5859 16.3861C8.94122 18.738 9.65802 21.1991 11.2782 22.3601C12.9032 23.5262 15.4316 23.3922 17.0763 21.0403L23.1985 12.2677C24.8432 9.91085 24.1264 7.45473 22.5063 6.2887C21.8975 5.85206 21.166 5.599 20.3952 5.57419H20.2724ZM20.1841 6.43259C20.2479 6.43259 20.3117 6.43259 20.3706 6.43755C20.9647 6.46236 21.5244 6.67572 21.9957 7.01809C23.2574 7.92115 23.8907 9.7223 22.4719 11.7517L19.3052 16.2918C17.5476 15.8155 15.2892 14.1929 14.2632 12.6696L17.4396 8.12458C18.2693 6.9387 19.2561 6.45244 20.1841 6.43259ZM4.46618 10.2135C3.99389 10.2185 3.52797 10.3177 3.09495 10.5112C1.46941 11.2307 0.623494 13.0666 1.11936 14.7933L7.5371 11.9601C6.89395 10.8635 5.72548 10.1986 4.46618 10.2135ZM7.88567 12.7738L1.46892 15.612C2.37472 17.17 4.28208 17.7952 5.91695 17.0758C7.54692 16.3513 8.39136 14.5055 7.88567 12.7738Z" fill="white"/>
</svg>
