<svg width="91" height="84" viewBox="0 0 91 84" fill="none" xmlns="http://www.w3.org/2000/svg">
<g filter="url(#filter0_d_20860_50951)">
<path d="M51.3896 14.6199L34.547 24.9447H54.1032L57.0038 23.7759H60.1852C59.6238 22.4447 58.1267 19.1004 56.6296 16.3731C55.1324 13.6458 52.5125 14.0679 51.3896 14.6199Z" fill="#FF6600"/>
</g>
<g filter="url(#filter1_d_20860_50951)">
<path fill-rule="evenodd" clip-rule="evenodd" d="M40.5099 24.9453H72.1106L71.0085 20.9396C70.3801 18.6556 68.0264 17.3155 65.7513 17.9463L40.5099 24.9453Z" fill="#0000FF"/>
</g>
<g filter="url(#filter2_d_20860_50951)">
<mask id="mask0_20860_50951" style="mask-type:alpha" maskUnits="userSpaceOnUse" x="10" y="27" width="71" height="47">
<path d="M10.6974 32.0739C10.6974 29.4916 12.7908 27.3983 15.373 27.3983H75.7817C78.3639 27.3983 80.4573 29.4916 80.4573 32.0739V68.3565C80.4573 70.9388 78.3639 73.0321 75.7817 73.0321H15.373C12.7908 73.0321 10.6974 70.9388 10.6974 68.3565V32.0739Z" fill="#0EA16C"/>
</mask>
<g mask="url(#mask0_20860_50951)">
<path d="M9.94916 27.025H81.2052V73.4069H9.94916V27.025Z" fill="#0EA16C"/>
<g filter="url(#filter3_d_20860_50951)">
<path d="M58.9499 41.7986H80.4576V60.1269H58.9499L48.8506 50.3082L58.9499 41.7986Z" fill="#007745"/>
<path d="M60.8195 50.5868C60.8195 52.0329 59.6473 53.2052 58.2012 53.2052C56.7552 53.2052 55.5829 52.0329 55.5829 50.5868C55.5829 49.1408 56.7552 47.9685 58.2012 47.9685C59.6473 47.9685 60.8195 49.1408 60.8195 50.5868Z" fill="white"/>
</g>
</g>
</g>
<path d="M38.7206 45.9158V47.9027C38.7206 48.0846 38.6629 48.2339 38.5474 48.3508C38.4318 48.4676 38.2842 48.5261 38.1045 48.5261H34.8697C34.5744 50.3961 33.7465 51.9155 32.3858 53.0843C31.0251 54.253 29.2537 54.9673 27.0714 55.227C29.2151 57.5385 32.1611 61.0188 35.9094 65.6679C36.0891 65.8757 36.1148 66.0965 35.9865 66.3302C35.8838 66.564 35.6976 66.6808 35.4281 66.6808H31.6734C31.468 66.6808 31.3075 66.6029 31.192 66.4471C27.264 61.6811 24.0677 57.9736 21.603 55.3244C21.4875 55.2075 21.4297 55.0647 21.4297 54.8958V52.422C21.4297 52.2531 21.4907 52.107 21.6127 51.9837C21.7346 51.8603 21.879 51.7986 22.0459 51.7986H24.2025C25.8969 51.7986 27.2608 51.5194 28.2941 50.961C29.3275 50.4026 29.9853 49.591 30.2677 48.5261H22.0459C21.8662 48.5261 21.7186 48.4676 21.603 48.3508C21.4875 48.2339 21.4297 48.0846 21.4297 47.9027V45.9158C21.4297 45.734 21.4875 45.5847 21.603 45.4678C21.7186 45.3509 21.8662 45.2925 22.0459 45.2925H29.9982C29.2665 43.8251 27.5464 43.0913 24.8379 43.0913H22.0459C21.879 43.0913 21.7346 43.0297 21.6127 42.9063C21.4907 42.7829 21.4297 42.6368 21.4297 42.468V39.8772C21.4297 39.6954 21.4875 39.5461 21.603 39.4292C21.7186 39.3123 21.8662 39.2539 22.0459 39.2539H38.066C38.2457 39.2539 38.3933 39.3123 38.5088 39.4292C38.6244 39.5461 38.6821 39.6954 38.6821 39.8772V41.8641C38.6821 42.0459 38.6244 42.1953 38.5088 42.3122C38.3933 42.429 38.2457 42.4875 38.066 42.4875H33.5796C34.1829 43.2796 34.5937 44.2147 34.8119 45.2925H38.1045C38.2842 45.2925 38.4318 45.3509 38.5474 45.4678C38.6629 45.5847 38.7206 45.734 38.7206 45.9158Z" fill="white"/>
<defs>
<filter id="filter0_d_20860_50951" x="24.547" y="0.212402" width="45.6382" height="30.7323" filterUnits="userSpaceOnUse" color-interpolation-filters="sRGB">
<feFlood flood-opacity="0" result="BackgroundImageFix"/>
<feColorMatrix in="SourceAlpha" type="matrix" values="0 0 0 0 0 0 0 0 0 0 0 0 0 0 0 0 0 0 127 0" result="hardAlpha"/>
<feOffset dy="-4"/>
<feGaussianBlur stdDeviation="5"/>
<feComposite in2="hardAlpha" operator="out"/>
<feColorMatrix type="matrix" values="0 0 0 0 0 0 0 0 0 0 0 0 0 0 0 0 0 0 0.25 0"/>
<feBlend mode="normal" in2="BackgroundImageFix" result="effect1_dropShadow_20860_50951"/>
<feBlend mode="normal" in="SourceGraphic" in2="effect1_dropShadow_20860_50951" result="shape"/>
</filter>
<filter id="filter1_d_20860_50951" x="30.5099" y="3.79041" width="51.6006" height="27.1549" filterUnits="userSpaceOnUse" color-interpolation-filters="sRGB">
<feFlood flood-opacity="0" result="BackgroundImageFix"/>
<feColorMatrix in="SourceAlpha" type="matrix" values="0 0 0 0 0 0 0 0 0 0 0 0 0 0 0 0 0 0 127 0" result="hardAlpha"/>
<feOffset dy="-4"/>
<feGaussianBlur stdDeviation="5"/>
<feComposite in2="hardAlpha" operator="out"/>
<feColorMatrix type="matrix" values="0 0 0 0 0 0 0 0 0 0 0 0 0 0 0 0 0 0 0.25 0"/>
<feBlend mode="normal" in2="BackgroundImageFix" result="effect1_dropShadow_20860_50951"/>
<feBlend mode="normal" in="SourceGraphic" in2="effect1_dropShadow_20860_50951" result="shape"/>
</filter>
<filter id="filter2_d_20860_50951" x="0.697449" y="17.3983" width="89.7598" height="65.6338" filterUnits="userSpaceOnUse" color-interpolation-filters="sRGB">
<feFlood flood-opacity="0" result="BackgroundImageFix"/>
<feColorMatrix in="SourceAlpha" type="matrix" values="0 0 0 0 0 0 0 0 0 0 0 0 0 0 0 0 0 0 127 0" result="hardAlpha"/>
<feOffset/>
<feGaussianBlur stdDeviation="5"/>
<feComposite in2="hardAlpha" operator="out"/>
<feColorMatrix type="matrix" values="0 0 0 0 0 0 0 0 0 0 0 0 0 0 0 0 0 0 0.25 0"/>
<feBlend mode="normal" in2="BackgroundImageFix" result="effect1_dropShadow_20860_50951"/>
<feBlend mode="normal" in="SourceGraphic" in2="effect1_dropShadow_20860_50951" result="shape"/>
</filter>
<filter id="filter3_d_20860_50951" x="38.8506" y="33.7986" width="47.607" height="34.3284" filterUnits="userSpaceOnUse" color-interpolation-filters="sRGB">
<feFlood flood-opacity="0" result="BackgroundImageFix"/>
<feColorMatrix in="SourceAlpha" type="matrix" values="0 0 0 0 0 0 0 0 0 0 0 0 0 0 0 0 0 0 127 0" result="hardAlpha"/>
<feOffset dx="-2"/>
<feGaussianBlur stdDeviation="4"/>
<feComposite in2="hardAlpha" operator="out"/>
<feColorMatrix type="matrix" values="0 0 0 0 1 0 0 0 0 1 0 0 0 0 1 0 0 0 0.25 0"/>
<feBlend mode="normal" in2="BackgroundImageFix" result="effect1_dropShadow_20860_50951"/>
<feBlend mode="normal" in="SourceGraphic" in2="effect1_dropShadow_20860_50951" result="shape"/>
</filter>
</defs>
</svg>
